<mxfile host="app.diagrams.net" modified="2024-06-04T16:15:01.980Z" agent="Mozilla/5.0 (Windows NT 10.0; Win64; x64) AppleWebKit/537.36 (KHTML, like Gecko) Chrome/125.0.0.0 Safari/537.36" version="24.4.13" etag="1VcjyOI9M5OvIi4fUKkQ" type="github">
  <diagram name="Page-1" id="eefoDRLb0w0LHI2bjs0k">
    <mxGraphModel>
      <root>
        <mxCell id="0" />
        <mxCell id="1" parent="0" />
      </root>
    </mxGraphModel>
  </diagram>
</mxfile>
